<svg xmlns="http://www.w3.org/2000/svg" xmlns:xlink="http://www.w3.org/1999/xlink" width="200" height="33" viewBox="0 0 200 33"><defs><path id="fyy0c" d="M140.3 29.02a2.88 2.88 0 0 0-.6 0l-.31-2.99a5.64 5.64 0 0 1 1.22 0zm-1.24.14a2.64 2.64 0 0 0-.55.24l-1.44-2.63a5.83 5.83 0 0 1 1.11-.48zm-.98.55a3.43 3.43 0 0 0-.42.45l-2.38-1.87a5.77 5.77 0 0 1 .85-.88zm-.74.9a3.02 3.02 0 0 0-.23.57l-2.88-.83a7.6 7.6 0 0 1 .46-1.13zm-.33 1.12a2.92 2.92 0 0 0 0 .62l-2.98.3a6.48 6.48 0 0 1 0-1.23zm.15 1.23a2.64 2.64 0 0 0 .23.56l-2.62 1.44a7.2 7.2 0 0 1-.48-1.12zm.54 1a2.77 2.77 0 0 0 .44.43l-1.85 2.35a6.7 6.7 0 0 1-.88-.84zm.91.74a3.24 3.24 0 0 0 .56.22l-.83 2.9a5.32 5.32 0 0 1-1.13-.47zm1.08.28a2.95 2.95 0 0 0 .61 0l.32 2.99a6.71 6.71 0 0 1-1.24 0zm1.23-.14a2.68 2.68 0 0 0 .56-.24l1.45 2.63a6.42 6.42 0 0 1-1.13.48zm1-.55a3.15 3.15 0 0 0 .42-.43l2.36 1.85a5.96 5.96 0 0 1-.84.88zm.73-.9a2.72 2.72 0 0 0 .23-.57l2.88.83a7.21 7.21 0 0 1-.46 1.13zm.33-1.07a2.66 2.66 0 0 0 0-.61l2.99-.32a6.22 6.22 0 0 1 0 1.24zm-.14-1.24a3.33 3.33 0 0 0-.24-.56l2.64-1.45a5.82 5.82 0 0 1 .48 1.12zm-.54-1a2.36 2.36 0 0 0-.44-.43l1.85-2.36a6.7 6.7 0 0 1 .88.85zm-.91-.73a3.28 3.28 0 0 0-.56-.23l.82-2.89a7.68 7.68 0 0 1 1.14.46z"/><path id="fyy0a" d="M218 37.38V26.6h-70.56v10.8H218z"/><path id="fyy0e" d="M173.02 29.07h-4.1v-2.15h11.04v2.15h-4.08v8.04h-2.86zm25.74 6.18c2.57 0 3.36-1.47 3.5-3.17.15-1.84-.9-3.47-3.5-3.44-2.57.03-3.28 1.65-3.28 3.49 0 1.65.8 3.12 3.28 3.12zm.02-8.66c4.17 0 6.62 2.2 6.62 5.33 0 3.03-2.5 5.46-6.62 5.46-4.16 0-6.61-2.43-6.61-5.46 0-3.13 2.45-5.33 6.61-5.33zm19.22.31v10.22h-3.31l-5.5-6.51h-.04v6.51h-2.88v-10.2h3.28l5.5 6.64h.04v-6.64zm-70.56 0h2.87v8.06h6.13v2.17h-9zm20.83 6.25c0 2.85-2.29 4.23-5.9 4.23-3.61 0-5.86-1.37-5.86-4.23V26.9h2.85v6.25c0 1.57.95 2.18 3.02 2.18 2.11 0 3.03-.61 3.03-2.18V26.9h2.86zm14.93-1.76h3.56c1.32 0 2.24-.14 2.24-1.2 0-1-.92-1.19-2.24-1.19h-3.56zm-2.61-4.49h7.26c2.78-.16 3.98.96 4.02 2.6.03 1.24-.84 2.26-2.22 2.68l.01.04c1.1.04 1.5.15 1.86 2.4.13.79.3 2.4.85 2.5h-2.13c-.8.05-.98-1.04-1.2-2.38-.18-1.08-.39-1.6-1.5-1.6h-4.3v3.98h-2.65zm11.78 10.22h.13-.13z"/><path id="fyy0f" d="M114.9 33.55c0 1.54.68 3.16 2.6 3.16 1.73 0 2.43-1.62 2.43-3.16s-.7-3.16-2.43-3.16c-1.92 0-2.6 1.62-2.6 3.16zM114 27h.9v4.25h.03c.4-1.06 1.47-1.62 2.57-1.62 2.26 0 3.34 1.82 3.34 3.92 0 2.1-1.08 3.92-3.34 3.92-1.19 0-2.22-.62-2.64-1.62h-.03v1.4H114zm7.4 2.85h.97l2.44 6.32 2.29-6.32h.9l-3.22 8.54c-.51 1.25-.82 1.61-1.95 1.61-.36-.01-.55-.01-.69-.07v-.76c.22.04.42.07.62.07.8 0 .99-.47 1.29-1.16l.32-.85z"/><path id="fyy0b" d="M18 25.65V9.3h91.55V42H18z"/><path id="fyy0h" d="M49.93 33.3c.5-.51.9-1.01 1.2-1.5 0-.4-.12-.8-.38-1.16-.27-.36-.68-.54-1.23-.54a3.5 3.5 0 0 0-1.7.52 8.47 8.47 0 0 0-3 2.9 3.27 3.27 0 0 0-.53 1.65c0 .2.06.42.16.64.1.23.35.34.73.34.45 0 .96-.14 1.52-.41a11.18 11.18 0 0 0 3.23-2.43m25.66-1.78c-.27.4-.45.78-.52 1.17a7.3 7.3 0 0 0 2.46-.47c.6-.21 1.07-.53 1.44-.96.36-.43.55-.8.55-1.12 0-.48-.32-.73-.94-.73-.28 0-.6.1-.97.3a6.23 6.23 0 0 0-2.01 1.82m17.52-4.7a63.23 63.23 0 0 0-3.68 6.78 37.6 37.6 0 0 0-1.53 3.82c-.42 1.25-.63 2.3-.63 3.16 0 .38.04.64.13.78.09.13.13.29.13.46 0 .07-.02.13-.1.15a.64.64 0 0 1-.21 0c-1.32-.27-1.98-1-1.98-2.17 0-.9.26-2.01.8-3.36.46-1.13 1-2.3 1.6-3.5-.53.4-1.05.7-1.05.7a48.34 48.34 0 0 1-4.93 2.7 11.43 11.43 0 0 1-4.93 1.08 4.93 4.93 0 0 1-2.79-.75c-.82-.53-1.23-1.45-1.23-2.76 0-.24.04-.54.1-.88 0 0-3.36 2.74-7.71 4.37-.87.3-1.67.44-2.4.44-.77 0-1.45-.17-2.04-.52a2 2 0 0 1-1.04-1.45c-.03-.25.08-.4.23-.46.16-.07.27-.1.34-.1.11 0 .19.03.24.1.05.07.1.13.13.2s.17.26.42.57c.24.31.57.47.99.47.24 0 .5-.04.78-.13s.54-.27.78-.54c.42-.49.72-1.22.89-2.2.17-.99.28-1.96.31-2.93a54.32 54.32 0 0 1-4.7 3.15l-1.17.68c-.53.31-1.19.67-1.95 1.09-.6.31-1.36.66-2.3 1.06-.94.4-1.75.6-2.45.6-.7 0-1.2-.2-1.47-.6-.27-.4-.4-.89-.4-1.48 0-.51.08-1.06.25-1.65-.41.38-.88.78-1.4 1.22-.53.43-1.07.82-1.65 1.19-.57.36-1.16.67-1.77.93-.61.25-1.21.38-1.8.38-.56 0-1-.13-1.33-.38-.33-.26-.5-.68-.5-1.27 0-.45.06-.88.18-1.3a4 4 0 0 1 .34-.87c-1.25.82-2.59 1.64-3.9 2.45a45.4 45.4 0 0 1-3.97 2.18 27.12 27.12 0 0 1-3.97 1.55c-1.32.4-2.59.6-3.8.6-1.22 0-2.38-.17-3.48-.5a7.3 7.3 0 0 1-4.8-4.27c-.47-1.1-.7-2.45-.7-4.03 0-2.86.63-5.56 1.88-8.1a28.9 28.9 0 0 1 7.85-9.7c1.1-.86 2.27-1.63 3.52-2.3 1.25-.67 2.55-1.2 3.89-1.6 1.34-.4 2.68-.6 4.04-.6.66 0 1.33.08 2.01.23.68.16 1.3.42 1.85.78a4.18 4.18 0 0 1 1.93 3.65 5.26 5.26 0 0 1-2.63 4.5c-.54.3-1.14.46-1.8.46-.42 0-.66-.08-.73-.26-.01-.03-.08-.14.15-.2a4.93 4.93 0 0 0 2.53-1.58c.61-.74.92-1.65.92-2.72 0-1.27-.42-2.24-1.26-2.9a5 5 0 0 0-3.18-.98c-.94 0-1.96.2-3.08.57-1.1.38-2.25.9-3.41 1.55a26.14 26.14 0 0 0-6.45 5.13 21.42 21.42 0 0 0-4.06 6.41 19.25 19.25 0 0 0-1.47 7.35c0 1 .14 1.96.42 2.9.28.93.71 1.76 1.3 2.5a6.58 6.58 0 0 0 5.43 2.46c1.18 0 2.38-.16 3.58-.49 1.2-.33 2.4-.76 3.6-1.3 1.2-.53 2.41-1.16 3.65-1.88 1.23-.73 2.5-1.48 3.78-2.28 1.21-.72 1.07-.69 1.45-1.03.8-.73 1.67-1.37 2.62-1.94a5.91 5.91 0 0 1 3.09-.86c.48 0 .96.13 1.42.4.47.25.81.55 1.02.9.14-.17.33-.37.57-.6.24-.22.45-.33.63-.33.2 0 .43.07.68.23.24.15.36.37.36.65a6.85 6.85 0 0 0-1.33 1.9 5.41 5.41 0 0 0-.55 2.39c0 .38.1.72.32 1 .2.3.52.45.94.45.34 0 .81-.11 1.4-.34.6-.22 1.2-.49 1.83-.8.63-.31 1.25-.65 1.88-1 .57-.34 1.6-.92 2.32-1.37.49-.32.97-.64 1.43-.97.87-.6 1.69-1.25 2.46-1.94 0-.79.2-1.44.62-1.94s.9-.75 1.46-.75c.18 0 .3.05.4.16.08.1.13.2.12.3-.07.56-.67 1.4-1.82 2.54.07.62.2 1.26.39 1.92.19.65.29 1.3.29 1.96a3.09 3.09 0 0 1-1.36 2.64c3.26-1.04 8.24-4.7 8.24-4.7.28-.52.65-1 1.12-1.43a10.04 10.04 0 0 1 3.1-1.86 4 4 0 0 1 1.36-.29c.53 0 .89.07 1.3.29.41.21.63.61.63 1.27 0 .38-.1.72-.34 1.03a4 4 0 0 1-.86.85c-.34.26-.73.48-1.14.65a9.79 9.79 0 0 1-3.34.78c0 1.03.21 1.8.65 2.3.43.5 1.2.75 2.32.75.63 0 1.32-.11 2.09-.34.76-.22 1.54-.5 2.32-.82a29.16 29.16 0 0 0 3.94-2s1.02-.54 1.78-1.1c.28-.54.53-.94.72-1.28.42-.75.84-1.47 1.26-2.14.41-.68.8-1.3 1.14-1.9l.08-.1h-3.65c-.56 0-.06-1.2.45-1.2h4.04c.55-.76 1.1-1.48 1.67-2.16.7-.86 1.52-1.8 2.42-2.8a1.27 1.27 0 0 1 .78-.36c.2.01.3.12.4.24.08.12.16.27.23.44-.56.76-1.2 1.58-1.93 2.46-.58.69-1.14 1.42-1.7 2.19h4.58c.56 0 .06 1.18-.45 1.18H93.2l-.08.12m5.77 6.47c.48-.52.89-1.02 1.2-1.5 0-.42-.13-.8-.4-1.17-.25-.36-.66-.54-1.22-.54a3.5 3.5 0 0 0-1.7.52 8.52 8.52 0 0 0-3 2.9 3.27 3.27 0 0 0-.53 1.65c0 .2.06.42.16.64.1.23.35.34.73.34.46 0 .96-.14 1.52-.41a11.02 11.02 0 0 0 3.24-2.43m10.6.08c.06.1.06.23.06.3-.6.38-1.19.7-1.72 1.02l-1.96 1.09c-.6.3-1.36.66-2.3 1.06-.94.4-1.75.6-2.45.6-.7 0-1.2-.2-1.47-.6-.27-.4-.4-.89-.4-1.48 0-.51.08-1.07.25-1.65-.41.38-.88.78-1.4 1.21a15.57 15.57 0 0 1-3.42 2.13c-.6.25-1.2.39-1.8.39-.56 0-1-.14-1.33-.4-.33-.25-.5-.68-.5-1.26a4.57 4.57 0 0 1 .53-2.18c.29-.55.7-1.1 1.08-1.45.8-.72 1.67-1.37 2.62-1.94a5.9 5.9 0 0 1 3.1-.86c.47 0 .95.13 1.42.4.46.25.8.55 1 .9.15-.17.34-.37.58-.6.25-.22.46-.33.63-.33.2 0 .43.07.68.23.24.15.36.37.36.65a6.86 6.86 0 0 0-1.33 1.91 5.47 5.47 0 0 0-.55 2.39c0 .38.11.71.32 1 .2.3.52.45.94.45.34 0 .81-.11 1.4-.34.6-.22 1.2-.5 1.83-.8.63-.31 1.25-.65 1.88-1.01.63-.37 1.26-.71 1.66-.96.09-.06.24.02.3.13m-30.93-7.22c-.07 0-.16-.06-.26-.16s-.16-.19-.16-.26a28.28 28.28 0 0 0 3.16-2.82c.33-.33.6-.63.8-.9.18 0 .38.12.6.36.23.24.34.4.34.46a16.65 16.65 0 0 1-2.16 1.73 145.94 145.94 0 0 0-2.32 1.59"/><clipPath id="fyy0d"><use xlink:href="#fyy0a"/></clipPath><clipPath id="fyy0g"><use xlink:href="#fyy0b"/></clipPath></defs><g><g transform="translate(-18 -9)"><g><use fill="#1d1d1f" xlink:href="#fyy0c"/></g><g><g/><g clip-path="url(#fyy0d)"><use fill="#1d1d1f" xlink:href="#fyy0e"/></g></g><g><use fill="#1d1d1f" xlink:href="#fyy0f"/></g><g><g/><g clip-path="url(#fyy0g)"><use fill="#1d1d1f" xlink:href="#fyy0h"/></g></g></g></g></svg>