<?xml version="1.0" encoding="UTF-8" standalone="no"?>
<svg
   fill="none"
   viewBox="0 0 146.66452 44"
   height="44"
   width="146.66452"
   version="1.1"
   id="svg25"
   sodipodi:docname="works-with-google-home.svg"
   inkscape:version="1.4.2 (f4327f4, 2025-05-13)"
   xmlns:inkscape="http://www.inkscape.org/namespaces/inkscape"
   xmlns:sodipodi="http://sodipodi.sourceforge.net/DTD/sodipodi-0.dtd"
   xmlns="http://www.w3.org/2000/svg"
   xmlns:svg="http://www.w3.org/2000/svg">
  <defs
     id="defs25" />
  <sodipodi:namedview
     id="namedview25"
     pagecolor="#ffffff"
     bordercolor="#000000"
     borderopacity="0.25"
     inkscape:showpageshadow="2"
     inkscape:pageopacity="0.0"
     inkscape:pagecheckerboard="true"
     inkscape:deskcolor="#d1d1d1"
     inkscape:zoom="22.780305"
     inkscape:cx="112.04854"
     inkscape:cy="-2.0412369"
     inkscape:window-width="2496"
     inkscape:window-height="1558"
     inkscape:window-x="-11"
     inkscape:window-y="-11"
     inkscape:window-maximized="1"
     inkscape:current-layer="svg25" />
  <path
     fill="#202124"
     d="M 140.11152,44 H 6.555106 C 2.940276,44 0,41.1186 0,37.5781 V 6.42028 C 0,2.8798 2.940276,0 6.555106,0 H 140.10952 c 3.615,0 6.555,2.8798 6.555,6.42028 V 37.5781 c 0.002,3.5405 -2.94,6.4219 -6.553,6.4219 z"
     id="path1" />
  <path
     fill="#ffffff"
     d="m 6.555016,0.833984 c -3.14565,0 -5.70358,2.505316 -5.70358,5.586266 V 37.5781 c 0,3.0809 2.55793,5.5862 5.70358,5.5862 H 140.10952 c 3.146,0 5.704,-2.5053 5.704,-5.5862 V 6.42025 c 0,-3.08095 -2.558,-5.586266 -5.704,-5.586266 z"
     id="path2" />
  <path
     fill="#34a853"
     d="m 28.746616,33.4898 h -13.7514 V 28.103 h 13.7514 z"
     id="path3" />
  <path
     fill="#ea4335"
     d="m 21.870916,8.46277 c -0.3707,0 -0.7664,0.1946 -0.9935,0.41537 L 9.852716,19.686 c -0.2021,0.1979 -0.35735,0.5544 -0.35735,0.8405 v 7.0712 l 16.23745,-15.9035 -2.8684,-2.81442 c -0.2271,-0.22241 -0.6228,-0.41701 -0.9935,-0.41701 z"
     id="path4" />
  <path
     fill="#fbbc04"
     d="M 14.995216,33.4898 V 22.2109 l -5.49985,5.3868 v 4.5446 c 0,0.8013 0.55595,1.3475 1.37575,1.3475 z"
     id="path5" />
  <path
     fill="#4285f4"
     d="m 25.732916,11.6942 -3.8619,3.7825 6.8756,6.7343 v 11.2788 h 4.1258 c 0.8181,0 1.3758,-0.5446 1.3758,-1.3475 V 20.5266 c 0,-0.2862 -0.1553,-0.6427 -0.3573,-0.8406 z"
     id="path6" />
  <path
     fill="#202124"
     d="m 43.835316,11.5682 h 0.9768 l 1.3708,4.435 h 0.0116 l 1.4376,-4.435 h 0.9885 l 1.4492,4.4252 h 0.0117 l 1.3591,-4.4252 h 0.9668 l -1.855,5.6141 h -0.9634 l -1.4827,-4.4791 -1.4726,4.4791 h -0.9551 z"
     id="path7" />
  <path
     fill="#202124"
     d="m 54.262316,16.9616 c -0.4491,-0.2649 -0.7998,-0.6231 -1.0502,-1.0777 -0.2505,-0.4546 -0.3757,-0.9583 -0.3757,-1.5078 0,-0.5511 0.1252,-1.0531 0.3757,-1.5077 0.2504,-0.4546 0.6011,-0.8144 1.0502,-1.0793 0.4491,-0.265 0.955,-0.3958 1.5177,-0.3958 0.561,0 1.0669,0.1325 1.5161,0.3958 0.4491,0.2649 0.7998,0.623 1.0502,1.0793 0.2505,0.4562 0.3757,0.9566 0.3757,1.5077 0,0.5511 -0.1252,1.0532 -0.3757,1.5078 -0.2504,0.4546 -0.6011,0.8144 -1.0502,1.0777 -0.4492,0.2633 -0.9551,0.3957 -1.5161,0.3957 -0.5627,0 -1.0669,-0.1324 -1.5177,-0.3957 z m 2.5012,-0.7097 c 0.3038,-0.1718 0.5459,-0.4203 0.7296,-0.7425 0.1837,-0.3221 0.2755,-0.6999 0.2755,-1.1333 0,-0.4333 -0.0918,-0.8111 -0.2755,-1.1332 -0.1837,-0.3222 -0.4274,-0.5708 -0.7296,-0.7425 -0.3039,-0.1733 -0.6312,-0.2584 -0.9835,-0.2584 -0.3523,0 -0.6829,0.0867 -0.9901,0.2584 -0.3072,0.1717 -0.5526,0.4203 -0.7363,0.7425 -0.1837,0.3238 -0.2755,0.7015 -0.2755,1.1332 0,0.4334 0.0918,0.8112 0.2755,1.1333 0.1837,0.3222 0.4291,0.5707 0.7363,0.7425 0.3072,0.1717 0.6378,0.2583 0.9901,0.2583 0.3523,0 0.6812,-0.0866 0.9835,-0.2583 z"
     id="path8" />
  <path
     fill="#202124"
     d="m 59.780616,11.5682 h 0.91 v 0.9027 h 0.0451 c 0.1135,-0.3074 0.3306,-0.5642 0.6511,-0.7702 0.3223,-0.2061 0.6596,-0.3091 1.0119,-0.3091 0.2621,0 0.4875,0.0409 0.6745,0.121 v 1.0008 c -0.2404,-0.1177 -0.5092,-0.1766 -0.8098,-0.1766 -0.2772,0 -0.5326,0.0769 -0.763,0.2322 -0.2321,0.1538 -0.4174,0.3614 -0.556,0.6231 -0.1386,0.2616 -0.2087,0.5429 -0.2087,0.8438 v 3.1447 h -0.9551 z"
     id="path9" />
  <path
     fill="#202124"
     d="m 64.108516,9.30017 h 0.9551 v 4.95343 l 2.6965,-2.6852 h 1.2138 v 0.0425 l -2.2474,2.224 2.3042,3.3017 v 0.0442 h -1.1354 l -1.8433,-2.6967 -0.9884,0.9682 v 1.7285 h -0.9551 z"
     id="path10" />
  <path
     fill="#202124"
     d="m 70.242816,16.9337 c -0.4124,-0.2829 -0.703,-0.6443 -0.8766,-1.0842 l 0.8532,-0.3745 c 0.1419,0.3385 0.354,0.5985 0.6345,0.7817 0.2805,0.1831 0.5894,0.2747 0.9266,0.2747 0.359,0 0.6662,-0.0719 0.9217,-0.2142 0.2554,-0.1423 0.3823,-0.3467 0.3823,-0.61 0,-0.2355 -0.1018,-0.4235 -0.3038,-0.5674 -0.2021,-0.1439 -0.521,-0.2666 -0.9551,-0.368 l -0.6962,-0.1766 c -0.4575,-0.1096 -0.8315,-0.2976 -1.1237,-0.5609 -0.2922,-0.2649 -0.4391,-0.6051 -0.4391,-1.0237 0,-0.3222 0.0985,-0.6067 0.2972,-0.8537 0.1986,-0.2453 0.4624,-0.435 0.793,-0.5674 0.3306,-0.1325 0.6846,-0.1979 1.067,-0.1979 0.5025,0 0.9483,0.1063 1.3424,0.3189 0.394,0.2126 0.6728,0.5102 0.8381,0.8912 l -0.8315,0.3745 c -0.2537,-0.4987 -0.7079,-0.7489 -1.3591,-0.7489 -0.3139,0 -0.5894,0.0719 -0.8264,0.2142 -0.2355,0.1423 -0.354,0.3238 -0.354,0.5445 0,0.2061 0.0818,0.3729 0.2471,0.5004 0.1653,0.1276 0.4124,0.2323 0.7413,0.314 l 0.8315,0.2094 c 0.5627,0.139 0.9851,0.3466 1.269,0.6214 0.2838,0.2747 0.4274,0.6116 0.4274,1.0073 0,0.3451 -0.1018,0.6476 -0.3039,0.9076 -0.202,0.2601 -0.4758,0.4612 -0.8198,0.6002 -0.3456,0.139 -0.7263,0.2093 -1.1454,0.2093 -0.6111,0.0017 -1.1253,-0.139 -1.5377,-0.4219 z"
     id="path11" />
  <path
     fill="#202124"
     d="m 77.188616,11.5682 h 0.9784 l 1.3708,4.435 h 0.0117 l 1.4376,-4.435 h 0.9901 l 1.4493,4.4252 h 0.0116 l 1.3591,-4.4252 h 0.9668 l -1.855,5.6141 h -0.9667 l -1.4827,-4.4791 -1.4727,4.4791 h -0.955 z"
     id="path12" />
  <path
     fill="#202124"
     d="m 86.719016,10.3451 c -0.1353,-0.1325 -0.202,-0.2895 -0.202,-0.47264 0,-0.18315 0.0667,-0.34015 0.202,-0.4677 0.1336,-0.12756 0.2955,-0.19297 0.4825,-0.19297 0.187,0 0.349,0.06378 0.4842,0.19297 0.1353,0.12755 0.2021,0.28455 0.2021,0.4677 0,0.18314 -0.0652,0.34174 -0.1971,0.47264 -0.1302,0.1324 -0.2938,0.1978 -0.4892,0.1978 -0.1887,0.0017 -0.3489,-0.0654 -0.4825,-0.1978 z m 0.01,1.2232 h 0.945 v 5.6141 h -0.945 z"
     id="path13" />
  <path
     fill="#202124"
     d="m 90.736016,17.2445 c -0.1987,-0.0752 -0.3657,-0.175 -0.5009,-0.3026 -0.1503,-0.1422 -0.2621,-0.3058 -0.3373,-0.4938 -0.0751,-0.1865 -0.1135,-0.4154 -0.1135,-0.6836 v -3.3491 h -1.0001 v -0.8471 h 1.0001 V 9.98364 h 0.955 v 1.58466 h 1.3942 v 0.8471 h -1.3942 v 3.1283 c 0,0.3157 0.0601,0.5479 0.1804,0.6967 0.1419,0.1652 0.3473,0.2469 0.6177,0.2469 0.2171,0 0.4275,-0.0621 0.6295,-0.1864 v 0.9125 c -0.1119,0.0507 -0.2254,0.0883 -0.3423,0.1096 -0.1168,0.0229 -0.2638,0.0327 -0.4441,0.0327 -0.2321,0.0016 -0.4475,-0.036 -0.6445,-0.1112 z"
     id="path14" />
  <path
     fill="#202124"
     d="m 93.404316,9.30017 h 0.955 v 2.32213 l -0.045,0.7703 h 0.045 c 0.157,-0.2862 0.4074,-0.525 0.748,-0.7147 0.3407,-0.1913 0.713,-0.2862 1.1187,-0.2862 0.6963,0 1.2272,0.1996 1.5945,0.6002 0.3674,0.4007 0.551,0.9305 0.551,1.5912 v 3.5993 h -0.955 v -3.457 c 0,-0.507 -0.1302,-0.8798 -0.3924,-1.1219 -0.2621,-0.242 -0.6027,-0.363 -1.0218,-0.363 -0.3006,0 -0.576,0.0883 -0.8265,0.2649 -0.2521,0.1766 -0.4491,0.4039 -0.5961,0.6819 -0.1469,0.278 -0.2187,0.5691 -0.2187,0.87 v 3.1268 h -0.955 V 9.30017 Z"
     id="path15" />
  <path
     fill="#202124"
     d="m 98.618616,22.9125 h 1.2669 v 4.5789 h 5.582004 v -4.5789 h 1.266 v 10.5772 h -1.266 v -4.816 h -5.582004 v 4.816 h -1.2669 z"
     id="path16" />
  <path
     fill="#202124"
     d="m 110.09552,33.1938 c -0.602,-0.3549 -1.073,-0.8356 -1.41,-1.4472 -0.338,-0.61 -0.506,-1.2854 -0.506,-2.0246 0,-0.7391 0.168,-1.4129 0.506,-2.0245 0.337,-0.61 0.806,-1.0924 1.41,-1.4473 0.603,-0.3548 1.283,-0.5314 2.037,-0.5314 0.755,0 1.433,0.1766 2.036,0.5314 0.603,0.3549 1.073,0.8373 1.411,1.4473 0.337,0.6116 0.504,1.2854 0.504,2.0245 0,0.7392 -0.169,1.4129 -0.504,2.0246 -0.338,0.6116 -0.808,1.0923 -1.411,1.4472 -0.603,0.3549 -1.283,0.5315 -2.036,0.5315 -0.754,0 -1.434,-0.1766 -2.037,-0.5315 z m 3.356,-0.9517 c 0.408,-0.2306 0.733,-0.5642 0.981,-0.9976 0.245,-0.4334 0.369,-0.9403 0.369,-1.5225 0,-0.5822 -0.124,-1.0875 -0.369,-1.5208 -0.248,-0.4334 -0.573,-0.7654 -0.981,-0.9976 -0.407,-0.2306 -0.848,-0.3467 -1.319,-0.3467 -0.472,0 -0.915,0.1161 -1.327,0.3467 -0.412,0.2306 -0.741,0.5642 -0.988,0.9976 -0.247,0.4333 -0.369,0.9403 -0.369,1.5208 0,0.5806 0.123,1.0891 0.369,1.5225 0.245,0.4334 0.576,0.7653 0.988,0.9976 0.412,0.2305 0.855,0.3466 1.327,0.3466 0.473,0 0.912,-0.1161 1.319,-0.3466 z"
     id="path17" />
  <path
     fill="#202124"
     d="m 117.20052,25.9559 h 1.222 v 1.1071 h 0.06 c 0.222,-0.3843 0.553,-0.7032 0.995,-0.96 0.443,-0.2567 0.91,-0.3842 1.403,-0.3842 0.562,0 1.053,0.1324 1.471,0.399 0.417,0.2665 0.716,0.6198 0.896,1.0646 0.272,-0.4432 0.631,-0.7981 1.079,-1.0646 0.447,-0.2666 0.967,-0.399 1.561,-0.399 0.885,0 1.551,0.2632 1.999,0.7898 0.447,0.5266 0.671,1.2429 0.671,2.1505 v 4.8307 h -1.268 v -4.6394 c 0,-0.6983 -0.146,-1.2052 -0.437,-1.5209 -0.292,-0.3156 -0.723,-0.4726 -1.297,-0.4726 -0.383,0 -0.73,0.108 -1.041,0.3255 -0.312,0.2158 -0.556,0.5069 -0.731,0.8716 -0.175,0.3647 -0.264,0.7588 -0.264,1.1823 v 4.2551 h -1.282 v -4.6247 c 0,-0.7097 -0.147,-1.2215 -0.437,-1.5355 -0.291,-0.3156 -0.72,-0.4726 -1.283,-0.4726 -0.382,0 -0.729,0.1112 -1.04,0.3319 -0.312,0.2208 -0.556,0.5168 -0.731,0.8864 -0.177,0.3696 -0.264,0.7653 -0.264,1.1889 v 4.2256 h -1.282 z"
     id="path18" />
  <path
     fill="#202124"
     d="m 131.61952,33.2085 c -0.583,-0.345 -1.038,-0.8193 -1.366,-1.426 -0.327,-0.6067 -0.491,-1.2886 -0.491,-2.0458 0,-0.7293 0.154,-1.3982 0.461,-2.0098 0.307,-0.6099 0.742,-1.0989 1.306,-1.462 0.563,-0.3646 1.217,-0.5461 1.96,-0.5461 0.753,0 1.408,0.1651 1.96,0.4938 0.553,0.3304 0.979,0.785 1.274,1.3671 0.297,0.5806 0.446,1.2462 0.446,1.9951 0,0.1472 -0.015,0.2764 -0.045,0.3843 h -6.079 c 0.03,0.5708 0.17,1.0548 0.422,1.4473 0.252,0.3941 0.571,0.6901 0.959,0.8863 0.387,0.1979 0.791,0.296 1.213,0.296 0.985,0 1.745,-0.4529 2.278,-1.3589 l 1.085,0.5168 c -0.332,0.6116 -0.781,1.0923 -1.349,1.4472 -0.569,0.3549 -1.254,0.5315 -2.059,0.5315 -0.733,0 -1.392,-0.1717 -1.975,-0.5168 z m 4.193,-4.2829 c -0.02,-0.3156 -0.112,-0.6312 -0.273,-0.9452 -0.16,-0.314 -0.415,-0.5805 -0.761,-0.798 -0.347,-0.2175 -0.781,-0.3255 -1.306,-0.3255 -0.602,0 -1.113,0.1897 -1.531,0.5691 -0.417,0.3794 -0.691,0.8782 -0.821,1.4996 z"
     id="path19" />
  <path
     fill="#202124"
     d="m 49.360216,28.6754 v -1.6975 h 5.8021 c 0.0584,0.2993 0.0935,0.6558 0.0935,1.0401 0,1.2739 -0.3673,2.8373 -1.501,3.9705 -1.1254,1.1251 -2.5379,1.7433 -4.4263,1.7433 -3.498,0 -6.4383,-2.7882 -6.4383,-6.2142 0,-3.426 2.9403,-6.2143 6.4383,-6.2143 1.9351,0 3.3109,0.7425 4.3478,1.7122 l -1.2222,1.1971 c -0.743,-0.6819 -1.7482,-1.2118 -3.1256,-1.2118 -2.5529,0 -4.5499,2.0164 -4.5499,4.5168 0,2.5004 1.997,4.5167 4.5499,4.5167 1.6563,0 2.5996,-0.6525 3.2041,-1.2428 0.4925,-0.4808 0.8164,-1.1725 0.9416,-2.1161 z"
     id="path20" />
  <path
     fill="#202124"
     d="m 62.575616,29.7302 c 0,-1.4408 -1.067,-2.4252 -2.3059,-2.4252 -1.2388,0 -2.3058,0.9844 -2.3058,2.4252 0,1.4243 1.067,2.4251 2.3058,2.4251 1.2389,0 2.3059,-0.9991 2.3059,-2.4251 z m 1.7948,0 c 0,2.3041 -1.8416,4.0016 -4.1007,4.0016 -2.259,0 -4.1006,-1.6975 -4.1006,-4.0016 0,-2.3189 1.8416,-4.0017 4.1006,-4.0017 2.2591,0 4.1007,1.6828 4.1007,4.0017 z"
     id="path21" />
  <path
     fill="#202124"
     d="m 71.655216,29.7302 c 0,-1.4408 -1.0669,-2.4252 -2.3058,-2.4252 -1.2389,0 -2.3058,0.9844 -2.3058,2.4252 0,1.4243 1.0669,2.4251 2.3058,2.4251 1.2389,0 2.3058,-0.9991 2.3058,-2.4251 z m 1.7965,0 c 0,2.3041 -1.8416,4.0016 -4.1007,4.0016 -2.259,0 -4.1006,-1.6975 -4.1006,-4.0016 0,-2.3189 1.8416,-4.0017 4.1006,-4.0017 2.2591,0 4.1007,1.6828 4.1007,4.0017 z"
     id="path22" />
  <path
     fill="#202124"
     d="m 80.626416,29.7465 c 0,-1.4096 -0.9601,-2.4399 -2.1823,-2.4399 -1.2389,0 -2.2741,1.0303 -2.2741,2.4399 0,1.3949 1.0369,2.4105 2.2741,2.4105 1.2222,-0.0017 2.1823,-1.0172 2.1823,-2.4105 z m 1.5795,-3.7743 v 7.184 c 0,2.955 -1.7799,4.1684 -3.8837,4.1684 -1.9802,0 -3.1723,-1.3034 -3.6215,-2.3647 l 1.5628,-0.6361 c 0.2789,0.6525 0.9601,1.4243 2.0587,1.4243 1.3458,0 2.1823,-0.8193 2.1823,-2.3499 v -0.5757 h -0.0618 c -0.4024,0.4857 -1.1754,0.9093 -2.1505,0.9093 -2.042,0 -3.9154,-1.7433 -3.9154,-3.9869 0,-2.2584 1.8717,-4.0164 3.9154,-4.0164 0.9751,0 1.7481,0.4252 2.1505,0.8945 h 0.0618 v -0.6525 h 1.7014 z"
     id="path23" />
  <path
     fill="#202124"
     d="m 85.560016,21.7677 h -1.7949 v 11.722 h 1.7949 z"
     id="path24" />
  <path
     fill="#202124"
     d="m 88.533716,29.6091 3.6516,-1.4848 c -0.2004,-0.5004 -0.8048,-0.8488 -1.5161,-0.8488 -0.9133,0 -2.1822,0.7883 -2.1355,2.3336 z m 4.2861,1.4408 1.3925,0.9092 c -0.4492,0.6525 -1.5328,1.7727 -3.4045,1.7727 -2.3208,0 -4.0539,-1.758 -4.0539,-4.0016 0,-2.3794 1.7481,-4.0017 3.8536,-4.0017 2.1204,0 3.1573,1.6517 3.4979,2.5462 l 0.1853,0.4546 -5.4631,2.2126 c 0.4174,0.803 1.0686,1.2118 1.9802,1.2118 0.9133,0.0016 1.5478,-0.4383 2.012,-1.1038 z"
     id="path25" />
</svg>
